# xmcd
#
# Track frame offsets: 
#        150
#        15278
#        40540
#        56971
#        85002
#        97839
#        111846
#        125310
#        144254
#
# Disc length: 2317 seconds
#
# Revision: 1
# Processed by: cddbd v1.5.2PL0 Copyright (c) Steve Scherf et al.
# Submitted via: ExactAudioCopy v0.99pb4
#
DISCID=61090b09
DTITLE=Kim Nalley - Need My Sugar
DYEAR=2002
DGENRE=Jazz
TTITLE0=September In The Rain [Dubin-Warren]
TTITLE1=At Last [Gordon-Warren]
TTITLE2=Say It Isn't So [Berlin]
TTITLE3=Nature Boy [Eden]
TTITLE4=Need My Sugar
TTITLE5=I Was Telling Him About You [Charlap-George]
TTITLE6=Too Close For Comfort [Bock-Holofcener-Weiss]
TTITLE7=Goin' To Ney York [Reed]
TTITLE8=Our Day Will Come [Garson-Hilliard]
EXTD=YEAR: 2002
EXTT0=
EXTT1=
EXTT2=
EXTT3=
EXTT4=
EXTT5=
EXTT6=
EXTT7=
EXTT8=
PLAYORDER=
